<?xml version="1.0" encoding="UTF-8" ?>
<!DOCTYPE svg PUBLIC "-//W3C//DTD SVG 1.1//EN" "http://www.w3.org/Graphics/SVG/1.1/DTD/svg11.dtd">
<svg width="1738pt" height="294pt" viewBox="0 0 1738 294" version="1.1" xmlns="http://www.w3.org/2000/svg">
<g id="#434b57ff">
<path fill="#434b57" opacity="1.00" d=" M 48.76 0.00 L 1688.67 0.00 C 1704.17 1.05 1719.11 9.11 1727.92 22.00 C 1734.29 30.98 1737.30 42.04 1737.25 53.00 C 1737.24 113.01 1737.25 173.02 1737.25 233.03 C 1737.41 241.80 1737.26 250.79 1734.21 259.13 C 1728.55 275.48 1714.07 288.41 1697.14 292.04 C 1688.55 294.17 1679.67 293.37 1670.93 293.50 C 1132.98 293.51 595.02 293.48 57.07 293.51 C 43.34 294.20 29.09 290.49 18.49 281.46 C 7.26 272.25 0.42 258.08 0.00 243.58 L 0.00 49.42 C 0.54 36.15 6.33 23.16 16.04 14.07 C 24.81 5.63 36.68 0.84 48.76 0.00 M 125.12 85.03 C 124.85 121.02 125.00 157.02 125.25 193.02 C 125.26 198.35 126.49 203.85 129.75 208.17 C 134.19 214.18 141.72 217.18 149.02 217.57 C 185.00 217.46 221.00 217.38 256.99 217.14 C 265.31 217.31 273.67 213.28 278.66 206.59 C 283.77 199.73 285.00 190.91 285.06 182.58 C 300.24 183.35 316.08 179.76 328.22 170.29 C 338.99 162.09 346.05 149.34 347.35 135.87 C 348.84 120.63 344.73 104.31 334.11 92.94 C 323.97 81.83 308.93 75.75 293.98 75.75 C 240.34 75.76 186.71 75.72 133.07 75.78 C 128.17 75.47 124.65 80.46 125.12 85.03 M 1552.48 102.41 C 1549.78 107.01 1550.21 112.50 1550.25 117.62 C 1546.77 117.84 1542.90 116.85 1539.78 118.78 C 1535.70 121.38 1536.22 128.29 1540.63 130.26 C 1543.69 131.37 1547.05 130.73 1550.25 130.88 C 1550.26 144.94 1550.24 159.00 1550.25 173.06 C 1549.81 177.26 1553.74 181.10 1557.94 180.54 C 1561.80 180.56 1564.95 176.85 1564.62 173.07 C 1564.64 159.00 1564.61 144.94 1564.63 130.87 C 1569.04 130.73 1573.53 131.27 1577.92 130.54 C 1583.67 128.93 1583.68 119.60 1577.90 117.98 C 1573.52 117.21 1569.02 117.78 1564.60 117.62 C 1564.66 113.57 1563.92 108.34 1567.80 105.70 C 1571.91 103.34 1576.57 106.16 1580.91 105.62 C 1585.76 104.40 1586.87 96.89 1582.75 94.18 C 1578.68 91.44 1573.46 91.66 1568.82 92.23 C 1562.22 92.92 1555.63 96.38 1552.48 102.41 M 1592.35 95.33 C 1589.87 96.53 1589.80 99.63 1589.84 102.00 C 1589.82 104.29 1590.20 107.36 1592.80 108.13 C 1595.78 109.05 1599.12 109.04 1602.14 108.15 C 1604.82 107.44 1605.18 104.31 1605.18 101.99 C 1605.14 99.63 1605.20 96.51 1602.74 95.28 C 1599.45 94.04 1595.60 94.01 1592.35 95.33 M 475.15 96.18 C 469.47 97.27 463.88 99.62 459.71 103.72 C 450.10 112.73 450.73 130.67 461.74 138.31 C 468.39 143.20 476.80 144.06 484.66 145.55 C 489.20 146.67 494.21 147.95 497.31 151.72 C 500.04 155.10 499.91 160.61 496.39 163.40 C 490.29 168.54 481.47 168.72 474.10 166.72 C 469.33 165.49 465.57 162.21 461.55 159.57 C 457.20 157.14 451.45 161.16 451.71 165.99 C 451.68 170.04 455.18 172.72 458.16 174.86 C 466.14 180.72 476.43 182.22 486.10 181.64 C 494.85 180.98 503.84 177.37 509.27 170.23 C 514.55 163.48 514.84 153.87 511.84 146.11 C 508.81 138.95 501.19 135.41 494.11 133.54 C 486.46 131.25 477.98 131.24 471.06 126.88 C 466.68 124.15 465.94 117.24 469.66 113.64 C 473.12 110.14 478.34 109.37 483.06 109.37 C 489.84 109.60 496.30 112.38 501.86 116.14 C 506.05 119.20 512.16 114.90 511.78 110.04 C 511.88 106.66 509.15 104.17 506.60 102.40 C 497.52 96.18 485.88 94.29 475.15 96.18 M 1398.99 98.98 C 1386.35 111.48 1373.63 123.91 1361.01 136.42 C 1360.91 125.28 1361.16 114.12 1360.90 102.98 C 1360.68 96.70 1351.84 94.65 1347.92 98.90 C 1345.95 100.71 1345.83 103.52 1345.85 106.00 C 1345.90 128.02 1345.86 150.03 1345.87 172.04 C 1345.86 174.20 1346.13 176.57 1347.73 178.20 C 1351.33 182.38 1359.74 180.88 1360.77 175.13 C 1361.32 168.25 1360.82 161.32 1361.01 154.42 C 1364.80 150.87 1368.50 147.22 1372.32 143.69 C 1380.19 154.14 1388.16 164.53 1396.02 175.00 C 1397.33 176.66 1398.51 178.54 1400.33 179.72 C 1404.49 181.98 1410.42 179.49 1411.63 174.88 C 1412.38 172.21 1411.30 169.45 1409.68 167.34 C 1400.96 155.82 1392.24 144.30 1383.54 132.77 C 1392.26 124.40 1401.10 116.15 1409.73 107.70 C 1413.78 104.21 1411.08 96.95 1406.08 96.16 C 1403.35 95.66 1400.84 97.14 1398.99 98.98 M 877.34 107.44 C 876.65 110.77 877.08 114.23 877.00 117.61 C 873.50 117.82 869.19 116.74 866.51 119.64 C 863.22 122.81 864.64 129.13 869.03 130.52 C 871.63 131.12 874.34 130.84 877.00 130.89 C 876.99 141.94 877.01 153.00 876.98 164.05 C 876.98 168.13 877.45 172.60 880.18 175.84 C 882.77 178.51 886.50 179.67 890.08 180.25 C 894.88 180.96 900.37 180.65 904.13 177.20 C 907.30 174.64 906.66 168.72 902.86 167.10 C 899.76 166.46 896.54 169.01 893.53 167.42 C 891.48 166.47 891.38 164.00 891.37 162.06 C 891.36 151.67 891.39 141.27 891.37 130.88 C 895.10 130.74 898.94 131.31 902.61 130.43 C 907.87 128.58 907.90 120.22 902.78 118.19 C 899.09 117.10 895.15 117.79 891.37 117.63 C 891.00 113.36 892.67 108.10 889.30 104.69 C 885.85 100.98 878.81 102.58 877.34 107.44 M 610.91 123.71 C 610.39 121.11 609.40 118.26 606.77 117.13 C 602.50 114.86 596.40 117.87 596.31 122.88 C 596.16 147.60 596.29 172.33 596.25 197.06 C 595.90 200.88 599.09 204.50 602.96 204.51 C 606.77 204.93 610.51 201.83 610.64 197.97 C 610.90 190.02 610.70 182.05 610.72 174.09 C 616.07 178.65 622.83 181.94 630.00 181.76 C 639.75 181.93 649.09 176.21 653.91 167.83 C 660.42 156.61 660.68 141.88 654.58 130.43 C 650.02 121.80 640.91 115.59 631.05 115.27 C 623.46 114.68 616.04 118.25 610.91 123.71 M 685.40 123.74 C 684.89 121.27 684.07 118.55 681.65 117.32 C 677.36 114.71 670.84 117.72 670.81 122.95 C 670.67 147.62 670.78 172.30 670.75 196.97 C 670.40 200.65 673.29 204.26 677.03 204.47 C 680.92 205.11 684.98 202.05 685.12 198.05 C 685.43 190.07 685.18 182.07 685.23 174.08 C 690.45 178.53 696.99 181.80 703.98 181.76 C 713.01 182.07 721.86 177.36 727.00 169.99 C 734.75 158.87 735.47 143.38 729.54 131.31 C 725.18 122.41 716.09 115.81 706.09 115.30 C 698.32 114.55 690.62 118.10 685.40 123.74 M 768.51 115.66 C 760.68 116.90 753.31 121.12 748.50 127.44 C 737.94 141.05 739.50 162.95 752.83 174.21 C 765.64 185.24 787.10 184.14 798.43 171.48 C 810.20 158.53 809.69 136.20 796.93 124.09 C 789.55 116.86 778.60 114.00 768.51 115.66 M 833.38 124.68 C 832.99 122.83 833.00 120.76 831.77 119.22 C 829.12 115.46 822.76 115.46 820.13 119.23 C 818.58 121.10 818.75 123.66 818.72 125.93 C 818.79 141.62 818.72 157.30 818.75 172.99 C 818.35 177.01 821.88 180.87 825.97 180.54 C 830.07 180.84 833.48 176.99 833.21 173.00 C 833.36 163.02 833.14 153.03 833.28 143.05 C 833.49 136.93 836.75 130.11 843.03 128.30 C 847.09 126.91 850.94 129.84 854.98 129.57 C 858.26 129.25 860.62 126.14 860.61 122.94 C 861.11 119.01 857.51 115.82 853.87 115.37 C 846.07 114.57 837.61 117.88 833.38 124.68 M 967.90 125.14 C 967.54 123.04 967.61 120.65 966.08 118.98 C 963.44 115.59 957.65 115.53 954.95 118.85 C 953.36 120.48 953.20 122.85 953.23 125.00 C 953.26 140.69 953.26 156.38 953.23 172.07 C 953.20 174.16 953.35 176.46 954.88 178.07 C 957.72 181.65 964.06 181.35 966.50 177.46 C 967.80 175.58 967.70 173.19 967.77 171.01 C 967.74 161.67 967.75 152.34 967.73 143.01 C 967.65 139.66 968.45 136.21 970.58 133.55 C 974.36 128.49 981.76 127.36 987.43 129.51 C 991.82 131.41 993.18 136.66 993.34 141.02 C 993.46 151.68 993.28 162.35 993.40 173.02 C 993.38 175.25 994.17 177.55 995.96 178.98 C 999.85 182.35 1007.08 180.14 1007.73 174.81 C 1008.26 163.18 1007.43 151.50 1008.12 139.89 C 1009.03 130.35 1020.93 125.62 1028.81 130.13 C 1032.32 132.46 1033.32 137.00 1033.56 140.96 C 1033.78 151.96 1033.46 162.98 1033.69 173.99 C 1033.76 177.69 1037.24 180.84 1040.94 180.54 C 1045.01 180.82 1048.42 176.97 1048.10 172.99 C 1048.17 162.67 1048.11 152.34 1048.12 142.01 C 1047.97 134.87 1047.08 127.22 1042.73 121.30 C 1038.60 115.97 1031.24 114.85 1024.92 115.34 C 1016.98 115.92 1010.40 121.55 1006.22 127.99 C 1004.85 124.85 1003.29 121.65 1000.56 119.47 C 996.02 115.66 989.72 114.82 984.00 115.40 C 977.52 116.12 971.99 120.28 967.90 125.14 M 1065.56 128.59 C 1057.55 140.71 1057.31 158.13 1066.20 169.85 C 1077.16 184.01 1099.93 185.53 1113.73 174.78 C 1117.51 172.20 1117.58 165.81 1113.19 163.83 C 1108.72 161.65 1104.84 165.64 1100.93 167.15 C 1094.03 169.56 1085.60 168.99 1079.96 163.97 C 1076.71 161.36 1074.99 157.44 1073.88 153.52 C 1087.23 153.43 1100.58 153.58 1113.93 153.46 C 1117.37 153.48 1120.77 150.62 1120.75 147.06 C 1121.10 132.62 1110.25 118.70 1096.06 115.79 C 1084.52 113.33 1071.94 118.72 1065.56 128.59 M 1189.49 115.66 C 1181.42 116.94 1173.85 121.40 1169.05 128.03 C 1158.82 141.88 1160.76 163.78 1174.42 174.70 C 1187.32 185.23 1208.35 183.93 1219.49 171.41 C 1231.20 158.46 1230.66 136.19 1217.94 124.10 C 1210.55 116.86 1199.58 114.00 1189.49 115.66 M 1254.40 125.30 C 1254.13 122.58 1253.83 119.41 1251.31 117.76 C 1247.11 114.46 1239.82 117.40 1239.81 122.96 C 1239.65 139.31 1239.82 155.67 1239.73 172.03 C 1239.54 174.75 1240.30 177.72 1242.69 179.30 C 1246.93 182.45 1254.04 179.55 1254.13 174.04 C 1254.43 165.70 1254.16 157.34 1254.25 148.99 C 1254.34 144.16 1253.49 138.79 1256.47 134.58 C 1260.23 128.68 1268.41 127.25 1274.67 129.47 C 1279.58 131.39 1281.04 137.25 1281.10 142.01 C 1281.16 151.67 1281.12 161.33 1281.09 170.99 C 1281.01 173.70 1281.11 176.81 1283.37 178.71 C 1287.23 182.50 1294.94 180.22 1295.46 174.61 C 1295.87 165.07 1295.49 155.49 1295.63 145.94 C 1295.69 137.67 1295.32 128.71 1290.40 121.71 C 1286.46 116.33 1279.24 115.02 1272.98 115.26 C 1265.61 115.42 1258.97 119.75 1254.40 125.30 M 1443.51 115.66 C 1435.45 116.93 1427.89 121.37 1423.08 127.99 C 1412.82 141.84 1414.75 163.76 1428.42 174.70 C 1441.30 185.22 1462.29 183.94 1473.45 171.46 C 1485.21 158.51 1484.68 136.17 1471.91 124.07 C 1464.53 116.86 1453.59 114.00 1443.51 115.66 M 530.21 117.09 C 527.62 118.31 526.05 121.15 526.25 123.99 C 526.23 134.33 526.26 144.67 526.25 155.01 C 526.25 161.15 527.75 167.50 531.53 172.45 C 535.57 177.93 542.24 180.89 548.89 181.51 C 557.09 182.35 566.20 181.29 572.62 175.67 C 578.55 170.59 581.02 162.56 580.99 154.96 C 581.00 144.63 581.02 134.29 580.99 123.97 C 581.28 120.41 578.58 116.93 575.02 116.50 C 570.97 115.66 566.62 118.84 566.59 123.06 C 566.32 133.98 566.64 144.92 566.46 155.85 C 566.33 160.11 564.77 164.85 560.75 166.93 C 556.50 169.01 551.26 169.02 546.94 167.17 C 542.67 165.27 540.88 160.34 540.79 155.96 C 540.61 145.07 540.92 134.17 540.67 123.28 C 540.74 118.12 534.67 114.80 530.21 117.09 M 1594.23 117.12 C 1591.62 118.29 1590.16 121.16 1590.27 123.94 C 1590.20 139.63 1590.30 155.31 1590.22 171.00 C 1590.25 173.20 1590.13 175.62 1591.50 177.52 C 1594.09 181.62 1601.00 181.59 1603.55 177.44 C 1605.05 175.25 1604.69 172.48 1604.78 169.97 C 1604.66 154.33 1604.86 138.68 1604.69 123.04 C 1604.65 117.98 1598.56 114.83 1594.23 117.12 M 1496.18 137.22 C 1490.14 139.41 1490.71 149.31 1497.02 150.71 C 1502.98 151.39 1509.03 150.80 1515.04 151.02 C 1518.65 150.89 1523.08 151.76 1525.76 148.67 C 1529.30 144.92 1527.12 137.89 1522.06 136.88 C 1516.71 136.28 1511.32 136.79 1505.96 136.62 C 1502.70 136.73 1499.32 136.20 1496.18 137.22 Z" />
<path fill="#434b57" opacity="1.00" d=" M 285.63 103.01 C 292.64 103.16 300.10 102.12 306.62 105.36 C 314.28 108.78 319.55 116.66 320.11 124.99 C 320.52 131.56 319.61 138.47 316.19 144.21 C 312.93 149.68 307.29 153.47 301.23 155.18 C 296.09 156.12 290.81 155.90 285.62 155.60 C 285.63 138.07 285.62 120.54 285.63 103.01 Z" />
<path fill="#434b57" opacity="1.00" d=" M 621.42 129.60 C 627.51 127.31 635.05 128.55 639.52 133.45 C 647.12 141.65 646.95 156.04 639.00 163.95 C 633.87 169.15 625.17 169.89 618.99 166.18 C 606.25 158.22 607.15 135.44 621.42 129.60 Z" />
<path fill="#434b57" opacity="1.00" d=" M 696.37 129.43 C 702.49 127.33 709.93 128.74 714.28 133.73 C 721.85 142.24 721.35 157.12 712.67 164.70 C 706.26 170.34 695.37 169.61 689.83 163.11 C 680.98 153.35 683.29 134.30 696.37 129.43 Z" />
<path fill="#434b57" opacity="1.00" d=" M 768.35 129.49 C 774.05 127.48 780.79 128.58 785.40 132.53 C 794.85 140.49 794.75 157.22 784.93 164.84 C 778.64 169.92 768.79 169.63 762.78 164.24 C 752.02 155.04 754.49 134.32 768.35 129.49 Z" />
<path fill="#434b57" opacity="1.00" d=" M 1080.22 131.22 C 1086.73 127.07 1096.27 127.53 1101.73 133.28 C 1104.06 135.35 1104.91 138.42 1105.62 141.34 C 1095.08 141.40 1084.53 141.39 1073.99 141.35 C 1075.10 137.51 1076.69 133.47 1080.22 131.22 Z" />
<path fill="#434b57" opacity="1.00" d=" M 1189.35 129.50 C 1195.09 127.46 1201.89 128.60 1206.51 132.62 C 1215.67 140.48 1215.73 156.63 1206.45 164.42 C 1200.54 169.58 1191.10 169.82 1184.86 165.11 C 1172.92 156.46 1175.00 134.49 1189.35 129.50 Z" />
<path fill="#434b57" opacity="1.00" d=" M 1443.38 129.49 C 1449.07 127.48 1455.83 128.59 1460.43 132.56 C 1469.66 140.39 1469.75 156.59 1460.46 164.41 C 1454.38 169.74 1444.56 169.82 1438.34 164.70 C 1426.95 155.77 1429.24 134.38 1443.38 129.49 Z" />
</g>
<g id="#ffffffff">
<path fill="#ffffff" opacity="1.00" d=" M 125.12 85.03 C 124.65 80.46 128.17 75.47 133.07 75.78 C 186.71 75.72 240.34 75.76 293.98 75.75 C 308.93 75.75 323.97 81.83 334.11 92.94 C 344.73 104.31 348.84 120.63 347.35 135.87 C 346.05 149.34 338.99 162.09 328.22 170.29 C 316.08 179.76 300.24 183.35 285.06 182.58 C 285.00 190.91 283.77 199.73 278.66 206.59 C 273.67 213.28 265.31 217.31 256.99 217.14 C 221.00 217.38 185.00 217.46 149.02 217.57 C 141.72 217.18 134.19 214.18 129.75 208.17 C 126.49 203.85 125.26 198.35 125.25 193.02 C 125.00 157.02 124.85 121.02 125.12 85.03 M 285.63 103.01 C 285.62 120.54 285.63 138.07 285.62 155.60 C 290.81 155.90 296.09 156.12 301.23 155.18 C 307.29 153.47 312.93 149.68 316.19 144.21 C 319.61 138.47 320.52 131.56 320.11 124.99 C 319.55 116.66 314.28 108.78 306.62 105.36 C 300.10 102.12 292.64 103.16 285.63 103.01 M 172.77 110.85 C 166.20 113.09 161.04 118.91 159.78 125.76 C 157.85 135.99 161.50 146.93 168.70 154.36 C 179.33 165.73 191.05 176.02 202.36 186.70 C 203.60 188.11 205.92 189.26 207.33 187.39 C 217.47 178.18 227.34 168.67 236.88 158.84 C 241.23 154.15 246.09 149.65 248.69 143.68 C 251.95 136.47 252.44 127.62 248.51 120.57 C 243.91 112.46 234.06 107.99 224.91 109.12 C 217.28 109.99 210.60 114.42 205.18 119.63 C 197.14 110.99 184.11 106.60 172.77 110.85 Z" />
<path fill="#ffffff" opacity="1.00" d=" M 1552.48 102.41 C 1555.63 96.38 1562.22 92.92 1568.82 92.23 C 1573.46 91.66 1578.68 91.44 1582.75 94.18 C 1586.87 96.89 1585.76 104.40 1580.91 105.62 C 1576.57 106.16 1571.91 103.34 1567.80 105.70 C 1563.92 108.34 1564.66 113.57 1564.60 117.62 C 1569.02 117.78 1573.52 117.21 1577.90 117.98 C 1583.68 119.60 1583.67 128.93 1577.92 130.54 C 1573.53 131.27 1569.04 130.73 1564.63 130.87 C 1564.61 144.94 1564.64 159.00 1564.62 173.07 C 1564.95 176.85 1561.80 180.56 1557.94 180.54 C 1553.74 181.10 1549.81 177.26 1550.25 173.06 C 1550.24 159.00 1550.26 144.94 1550.25 130.88 C 1547.05 130.73 1543.69 131.37 1540.63 130.26 C 1536.22 128.29 1535.70 121.38 1539.78 118.78 C 1542.90 116.85 1546.77 117.84 1550.25 117.62 C 1550.21 112.50 1549.78 107.01 1552.48 102.41 Z" />
<path fill="#ffffff" opacity="1.00" d=" M 1592.35 95.33 C 1595.60 94.01 1599.45 94.04 1602.74 95.28 C 1605.20 96.51 1605.14 99.63 1605.18 101.99 C 1605.18 104.31 1604.82 107.44 1602.14 108.15 C 1599.12 109.04 1595.78 109.05 1592.80 108.13 C 1590.20 107.36 1589.82 104.29 1589.84 102.00 C 1589.80 99.63 1589.87 96.53 1592.35 95.33 Z" />
<path fill="#ffffff" opacity="1.00" d=" M 475.15 96.18 C 485.88 94.29 497.52 96.18 506.60 102.40 C 509.15 104.17 511.88 106.66 511.78 110.04 C 512.16 114.90 506.05 119.20 501.86 116.14 C 496.30 112.38 489.84 109.60 483.06 109.37 C 478.34 109.37 473.12 110.14 469.66 113.64 C 465.94 117.24 466.68 124.15 471.06 126.88 C 477.98 131.24 486.46 131.25 494.11 133.54 C 501.19 135.41 508.81 138.95 511.84 146.11 C 514.84 153.87 514.55 163.48 509.27 170.23 C 503.84 177.37 494.85 180.98 486.10 181.64 C 476.43 182.22 466.14 180.72 458.16 174.86 C 455.18 172.72 451.68 170.04 451.71 165.99 C 451.45 161.16 457.20 157.14 461.55 159.57 C 465.57 162.21 469.33 165.49 474.10 166.72 C 481.47 168.72 490.29 168.54 496.39 163.40 C 499.91 160.61 500.04 155.10 497.31 151.72 C 494.21 147.95 489.20 146.67 484.66 145.55 C 476.80 144.06 468.39 143.20 461.74 138.31 C 450.73 130.67 450.10 112.73 459.71 103.72 C 463.88 99.62 469.47 97.27 475.15 96.18 Z" />
<path fill="#ffffff" opacity="1.00" d=" M 1398.99 98.98 C 1400.84 97.14 1403.35 95.66 1406.08 96.16 C 1411.08 96.95 1413.78 104.21 1409.73 107.70 C 1401.10 116.15 1392.26 124.40 1383.54 132.77 C 1392.24 144.30 1400.96 155.82 1409.68 167.34 C 1411.30 169.45 1412.38 172.21 1411.63 174.88 C 1410.42 179.49 1404.49 181.98 1400.33 179.72 C 1398.51 178.54 1397.33 176.66 1396.02 175.00 C 1388.16 164.53 1380.19 154.14 1372.32 143.69 C 1368.50 147.22 1364.80 150.87 1361.01 154.42 C 1360.82 161.32 1361.32 168.25 1360.77 175.13 C 1359.74 180.88 1351.33 182.38 1347.73 178.20 C 1346.13 176.57 1345.86 174.20 1345.87 172.04 C 1345.86 150.03 1345.90 128.02 1345.85 106.00 C 1345.83 103.52 1345.95 100.71 1347.92 98.90 C 1351.84 94.65 1360.68 96.70 1360.90 102.98 C 1361.16 114.12 1360.91 125.28 1361.01 136.42 C 1373.63 123.91 1386.35 111.48 1398.99 98.98 Z" />
<path fill="#ffffff" opacity="1.00" d=" M 877.34 107.44 C 878.81 102.58 885.85 100.98 889.30 104.69 C 892.67 108.10 891.00 113.36 891.37 117.63 C 895.15 117.79 899.09 117.10 902.78 118.19 C 907.90 120.22 907.87 128.58 902.61 130.43 C 898.94 131.31 895.10 130.74 891.37 130.88 C 891.39 141.27 891.36 151.67 891.37 162.06 C 891.38 164.00 891.48 166.47 893.53 167.42 C 896.54 169.01 899.76 166.46 902.86 167.10 C 906.66 168.72 907.30 174.64 904.13 177.20 C 900.37 180.65 894.88 180.96 890.08 180.25 C 886.50 179.67 882.77 178.51 880.18 175.84 C 877.45 172.60 876.98 168.13 876.98 164.05 C 877.01 153.00 876.99 141.94 877.00 130.89 C 874.34 130.84 871.63 131.12 869.03 130.52 C 864.64 129.13 863.22 122.81 866.51 119.64 C 869.19 116.74 873.50 117.82 877.00 117.61 C 877.08 114.23 876.65 110.77 877.34 107.44 Z" />
<path fill="#ffffff" opacity="1.00" d=" M 610.91 123.71 C 616.04 118.25 623.46 114.68 631.05 115.27 C 640.91 115.59 650.02 121.80 654.58 130.43 C 660.68 141.88 660.42 156.61 653.91 167.83 C 649.09 176.21 639.75 181.93 630.00 181.76 C 622.83 181.94 616.07 178.65 610.72 174.09 C 610.70 182.05 610.90 190.02 610.64 197.97 C 610.51 201.83 606.77 204.93 602.96 204.51 C 599.09 204.50 595.90 200.88 596.25 197.06 C 596.29 172.33 596.16 147.60 596.31 122.88 C 596.40 117.87 602.50 114.86 606.77 117.13 C 609.40 118.26 610.39 121.11 610.91 123.71 M 621.42 129.60 C 607.15 135.44 606.25 158.22 618.99 166.18 C 625.17 169.89 633.87 169.15 639.00 163.95 C 646.95 156.04 647.12 141.65 639.52 133.45 C 635.05 128.55 627.51 127.31 621.42 129.60 Z" />
<path fill="#ffffff" opacity="1.00" d=" M 685.40 123.74 C 690.62 118.10 698.32 114.55 706.09 115.30 C 716.09 115.81 725.18 122.41 729.54 131.31 C 735.47 143.38 734.75 158.87 727.00 169.99 C 721.86 177.36 713.01 182.07 703.98 181.76 C 696.99 181.80 690.45 178.53 685.23 174.08 C 685.18 182.07 685.43 190.07 685.12 198.05 C 684.98 202.05 680.92 205.11 677.03 204.47 C 673.29 204.26 670.40 200.65 670.75 196.97 C 670.78 172.30 670.67 147.62 670.81 122.95 C 670.84 117.72 677.36 114.71 681.65 117.32 C 684.07 118.55 684.89 121.27 685.40 123.74 M 696.37 129.43 C 683.29 134.30 680.98 153.35 689.83 163.11 C 695.37 169.61 706.26 170.34 712.67 164.70 C 721.35 157.12 721.85 142.24 714.28 133.73 C 709.93 128.74 702.49 127.33 696.37 129.43 Z" />
<path fill="#ffffff" opacity="1.00" d=" M 768.51 115.66 C 778.60 114.00 789.55 116.86 796.93 124.09 C 809.69 136.20 810.20 158.53 798.43 171.48 C 787.10 184.14 765.64 185.24 752.83 174.21 C 739.50 162.95 737.94 141.05 748.50 127.44 C 753.31 121.12 760.68 116.90 768.51 115.66 M 768.35 129.49 C 754.49 134.32 752.02 155.04 762.78 164.24 C 768.79 169.63 778.64 169.92 784.93 164.84 C 794.75 157.22 794.85 140.49 785.40 132.53 C 780.79 128.58 774.05 127.48 768.35 129.49 Z" />
<path fill="#ffffff" opacity="1.00" d=" M 833.38 124.68 C 837.61 117.88 846.07 114.57 853.87 115.37 C 857.51 115.82 861.11 119.01 860.61 122.94 C 860.62 126.14 858.26 129.25 854.98 129.57 C 850.94 129.84 847.09 126.91 843.03 128.30 C 836.75 130.11 833.49 136.93 833.28 143.05 C 833.14 153.03 833.36 163.02 833.21 173.00 C 833.48 176.99 830.07 180.84 825.97 180.54 C 821.88 180.87 818.35 177.01 818.75 172.99 C 818.72 157.30 818.79 141.62 818.72 125.93 C 818.75 123.66 818.58 121.10 820.13 119.23 C 822.76 115.46 829.12 115.46 831.77 119.22 C 833.00 120.76 832.99 122.83 833.38 124.68 Z" />
<path fill="#ffffff" opacity="1.00" d=" M 967.90 125.14 C 971.99 120.28 977.52 116.12 984.00 115.40 C 989.72 114.82 996.02 115.66 1000.56 119.47 C 1003.29 121.65 1004.85 124.85 1006.22 127.99 C 1010.40 121.55 1016.98 115.92 1024.92 115.34 C 1031.24 114.85 1038.60 115.97 1042.73 121.30 C 1047.08 127.22 1047.97 134.87 1048.12 142.01 C 1048.11 152.34 1048.17 162.67 1048.10 172.99 C 1048.42 176.97 1045.01 180.82 1040.94 180.54 C 1037.24 180.84 1033.76 177.69 1033.69 173.99 C 1033.46 162.98 1033.78 151.96 1033.56 140.96 C 1033.32 137.00 1032.32 132.46 1028.81 130.13 C 1020.93 125.62 1009.03 130.35 1008.12 139.89 C 1007.43 151.50 1008.26 163.18 1007.73 174.81 C 1007.08 180.14 999.85 182.35 995.96 178.98 C 994.17 177.55 993.38 175.25 993.40 173.02 C 993.28 162.35 993.46 151.68 993.34 141.02 C 993.18 136.66 991.82 131.41 987.43 129.51 C 981.76 127.36 974.36 128.49 970.58 133.55 C 968.45 136.21 967.65 139.66 967.73 143.01 C 967.75 152.34 967.74 161.67 967.77 171.01 C 967.70 173.19 967.80 175.58 966.50 177.46 C 964.06 181.35 957.72 181.65 954.88 178.07 C 953.35 176.46 953.20 174.16 953.23 172.07 C 953.26 156.38 953.26 140.69 953.23 125.00 C 953.20 122.85 953.36 120.48 954.95 118.85 C 957.65 115.53 963.44 115.59 966.08 118.98 C 967.61 120.65 967.54 123.04 967.90 125.14 Z" />
<path fill="#ffffff" opacity="1.00" d=" M 1065.56 128.59 C 1071.94 118.72 1084.52 113.33 1096.06 115.79 C 1110.25 118.70 1121.10 132.62 1120.75 147.06 C 1120.77 150.62 1117.37 153.48 1113.93 153.46 C 1100.58 153.58 1087.23 153.43 1073.88 153.52 C 1074.99 157.44 1076.71 161.36 1079.96 163.97 C 1085.60 168.99 1094.03 169.56 1100.93 167.15 C 1104.84 165.64 1108.72 161.65 1113.19 163.83 C 1117.58 165.81 1117.51 172.20 1113.73 174.78 C 1099.93 185.53 1077.16 184.01 1066.20 169.85 C 1057.31 158.13 1057.55 140.71 1065.56 128.59 M 1080.22 131.22 C 1076.69 133.47 1075.10 137.51 1073.99 141.35 C 1084.53 141.39 1095.08 141.40 1105.62 141.34 C 1104.91 138.42 1104.06 135.35 1101.73 133.28 C 1096.27 127.53 1086.73 127.07 1080.22 131.22 Z" />
<path fill="#ffffff" opacity="1.00" d=" M 1189.49 115.66 C 1199.58 114.00 1210.55 116.86 1217.94 124.10 C 1230.66 136.19 1231.20 158.46 1219.49 171.41 C 1208.35 183.93 1187.32 185.23 1174.42 174.70 C 1160.76 163.78 1158.82 141.88 1169.05 128.03 C 1173.85 121.40 1181.42 116.94 1189.49 115.66 M 1189.35 129.50 C 1175.00 134.49 1172.92 156.46 1184.86 165.11 C 1191.10 169.82 1200.54 169.58 1206.45 164.42 C 1215.73 156.63 1215.67 140.48 1206.51 132.62 C 1201.89 128.60 1195.09 127.46 1189.35 129.50 Z" />
<path fill="#ffffff" opacity="1.00" d=" M 1254.40 125.30 C 1258.97 119.75 1265.61 115.42 1272.98 115.26 C 1279.24 115.02 1286.46 116.33 1290.40 121.71 C 1295.32 128.71 1295.69 137.67 1295.63 145.94 C 1295.49 155.49 1295.87 165.07 1295.46 174.61 C 1294.94 180.22 1287.23 182.50 1283.37 178.71 C 1281.11 176.81 1281.01 173.70 1281.09 170.99 C 1281.12 161.33 1281.16 151.67 1281.10 142.01 C 1281.04 137.25 1279.58 131.39 1274.67 129.47 C 1268.41 127.25 1260.23 128.68 1256.47 134.58 C 1253.49 138.79 1254.34 144.16 1254.25 148.99 C 1254.16 157.34 1254.43 165.70 1254.13 174.04 C 1254.04 179.55 1246.93 182.45 1242.69 179.30 C 1240.30 177.72 1239.54 174.75 1239.73 172.03 C 1239.82 155.67 1239.65 139.31 1239.81 122.96 C 1239.82 117.40 1247.11 114.46 1251.31 117.76 C 1253.83 119.41 1254.13 122.58 1254.40 125.30 Z" />
<path fill="#ffffff" opacity="1.00" d=" M 1443.51 115.66 C 1453.59 114.00 1464.53 116.86 1471.91 124.07 C 1484.68 136.17 1485.21 158.51 1473.45 171.46 C 1462.29 183.94 1441.30 185.22 1428.42 174.70 C 1414.75 163.76 1412.82 141.84 1423.08 127.99 C 1427.89 121.37 1435.45 116.93 1443.51 115.66 M 1443.38 129.49 C 1429.24 134.38 1426.95 155.77 1438.34 164.70 C 1444.56 169.82 1454.38 169.74 1460.46 164.41 C 1469.75 156.59 1469.66 140.39 1460.43 132.56 C 1455.83 128.59 1449.07 127.48 1443.38 129.49 Z" />
<path fill="#ffffff" opacity="1.00" d=" M 530.21 117.09 C 534.67 114.80 540.74 118.12 540.67 123.28 C 540.92 134.17 540.61 145.07 540.79 155.96 C 540.88 160.34 542.67 165.27 546.94 167.17 C 551.26 169.02 556.50 169.01 560.75 166.93 C 564.77 164.85 566.33 160.11 566.46 155.85 C 566.64 144.92 566.32 133.98 566.59 123.06 C 566.62 118.84 570.97 115.66 575.02 116.50 C 578.58 116.93 581.28 120.41 580.99 123.97 C 581.02 134.29 581.00 144.63 580.99 154.96 C 581.02 162.56 578.55 170.59 572.62 175.67 C 566.20 181.29 557.09 182.35 548.89 181.51 C 542.24 180.89 535.57 177.93 531.53 172.45 C 527.75 167.50 526.25 161.15 526.25 155.01 C 526.26 144.67 526.23 134.33 526.25 123.99 C 526.05 121.15 527.62 118.31 530.21 117.09 Z" />
<path fill="#ffffff" opacity="1.00" d=" M 1594.23 117.12 C 1598.56 114.83 1604.65 117.98 1604.69 123.04 C 1604.86 138.68 1604.66 154.33 1604.78 169.97 C 1604.69 172.48 1605.05 175.25 1603.55 177.44 C 1601.00 181.59 1594.09 181.62 1591.50 177.52 C 1590.13 175.62 1590.25 173.20 1590.22 171.00 C 1590.30 155.31 1590.20 139.63 1590.27 123.94 C 1590.16 121.16 1591.62 118.29 1594.23 117.12 Z" />
<path fill="#ffffff" opacity="1.00" d=" M 1496.18 137.22 C 1499.32 136.20 1502.70 136.73 1505.96 136.62 C 1511.32 136.79 1516.71 136.28 1522.06 136.88 C 1527.12 137.89 1529.30 144.92 1525.76 148.67 C 1523.08 151.76 1518.65 150.89 1515.04 151.02 C 1509.03 150.80 1502.98 151.39 1497.02 150.71 C 1490.71 149.31 1490.14 139.41 1496.18 137.22 Z" />
</g>
<g id="#ff5e5bff">
<path fill="#ff5e5b" opacity="1.00" d=" M 172.77 110.85 C 184.11 106.60 197.14 110.99 205.18 119.63 C 210.60 114.42 217.28 109.99 224.91 109.12 C 234.06 107.99 243.91 112.46 248.51 120.57 C 252.44 127.62 251.95 136.47 248.69 143.68 C 246.09 149.65 241.23 154.15 236.88 158.84 C 227.34 168.67 217.47 178.18 207.33 187.39 C 205.92 189.26 203.60 188.11 202.36 186.70 C 191.05 176.02 179.33 165.73 168.70 154.36 C 161.50 146.93 157.85 135.99 159.78 125.76 C 161.04 118.91 166.20 113.09 172.77 110.85 Z" />
</g>
</svg>
