<?xml version="1.0" encoding="UTF-8" ?>
<!DOCTYPE svg PUBLIC "-//W3C//DTD SVG 1.1//EN" "http://www.w3.org/Graphics/SVG/1.1/DTD/svg11.dtd">
<svg width="1853pt" height="613pt" viewBox="0 0 1853 613" version="1.1" xmlns="http://www.w3.org/2000/svg">
<g id="#012f50ff">
<path fill="#012f50" opacity="1.00" d=" M 96.90 0.00 L 192.94 0.00 C 197.87 1.39 203.01 1.06 208.06 1.00 C 708.73 1.00 1209.40 1.00 1710.07 1.00 C 1725.42 0.81 1740.80 1.39 1756.13 0.70 C 1774.36 2.67 1792.11 9.29 1807.10 19.88 C 1833.28 37.82 1850.34 68.38 1852.03 100.04 C 1851.95 228.38 1852.04 356.72 1851.99 485.05 C 1852.06 487.17 1852.53 489.24 1853.00 491.32 L 1853.00 498.17 C 1852.23 507.08 1852.33 516.09 1850.54 524.89 C 1844.31 560.22 1818.56 591.15 1785.24 604.22 C 1775.26 608.19 1764.69 610.61 1754.01 611.63 C 1749.62 612.14 1745.08 611.54 1740.84 613.00 L 1729.73 613.00 C 1724.95 611.45 1719.89 612.07 1714.97 612.00 C 1205.63 612.00 696.29 612.00 186.94 612.00 C 155.94 611.91 124.93 612.19 93.93 611.86 C 91.36 609.87 88.04 609.67 84.98 609.01 C 67.00 605.31 49.88 597.10 36.17 584.83 C 15.59 567.17 2.90 541.20 0.00 514.37 L 0.00 96.78 C 2.73 72.04 13.58 48.00 31.59 30.64 C 48.85 13.07 72.63 2.90 96.90 0.00 M 1440.45 36.50 C 1440.43 79.66 1440.48 122.82 1440.43 165.98 C 1410.80 135.63 1381.24 105.21 1351.69 74.78 C 1334.38 92.39 1317.23 110.15 1300.02 127.86 C 1331.06 157.48 1362.14 187.06 1393.16 216.71 C 1349.44 216.66 1305.72 216.71 1262.00 216.68 C 1262.00 241.14 1261.99 265.60 1262.00 290.07 C 1305.91 290.07 1349.81 290.06 1393.72 290.07 C 1362.52 320.47 1331.25 350.78 1300.01 381.13 C 1317.21 398.37 1334.41 415.60 1351.67 432.78 C 1394.08 390.09 1436.54 347.46 1479.00 304.81 C 1521.47 347.45 1563.91 390.12 1606.36 432.78 C 1623.54 415.52 1640.67 398.22 1657.85 380.96 C 1626.64 350.58 1595.34 320.29 1564.18 289.87 C 1607.94 289.85 1651.71 289.84 1695.47 289.87 C 1695.54 265.40 1695.48 240.92 1695.51 216.45 C 1651.97 216.41 1608.44 216.44 1564.91 216.43 C 1595.89 186.87 1626.94 157.39 1657.94 127.86 C 1640.81 110.20 1623.56 92.65 1606.43 74.99 C 1576.69 105.28 1547.17 135.79 1517.46 166.11 C 1517.44 122.91 1517.46 79.71 1517.46 36.51 C 1491.79 36.48 1466.12 36.51 1440.45 36.50 M 761.50 123.76 C 761.50 241.58 761.51 359.40 761.49 477.23 C 763.58 479.31 765.68 481.40 767.77 483.50 C 781.43 483.50 795.09 483.48 808.75 483.52 C 810.85 481.42 812.95 479.33 815.02 477.22 C 814.97 440.64 815.01 404.07 815.00 367.49 C 819.98 367.71 826.59 366.43 829.78 371.33 C 854.48 404.50 879.53 437.41 904.29 470.54 C 907.83 475.32 911.89 480.27 917.75 482.20 C 922.61 484.07 927.88 483.40 932.97 483.50 C 942.84 483.44 952.72 483.62 962.60 483.40 C 964.24 479.96 965.97 476.56 967.67 473.14 C 938.96 434.91 910.66 396.37 882.06 358.07 C 878.07 352.90 874.87 347.13 870.32 342.41 C 900.63 307.62 931.11 272.96 961.71 238.41 C 960.14 234.74 958.50 231.10 956.81 227.48 C 946.87 227.52 936.93 227.49 926.98 227.50 C 922.15 227.55 917.21 227.10 912.52 228.54 C 907.34 230.05 903.51 234.11 899.87 237.87 C 876.20 264.89 852.56 291.93 828.90 318.96 C 827.20 321.04 825.40 323.19 822.94 324.38 C 820.39 325.28 817.64 324.95 815.00 325.03 C 815.00 258.11 815.00 191.18 815.00 124.26 C 812.73 122.01 810.47 119.74 808.21 117.49 C 794.73 117.52 781.24 117.50 767.76 117.50 C 765.68 119.59 763.59 121.68 761.50 123.76 M 395.10 121.22 C 378.64 124.77 366.60 141.28 367.46 157.97 C 366.52 177.07 383.54 195.61 403.00 194.54 C 423.62 194.42 440.15 173.35 437.19 153.33 C 435.99 143.24 430.68 133.63 422.59 127.44 C 414.91 121.56 404.57 119.10 395.10 121.22 M 140.26 127.00 C 138.18 129.10 136.09 131.18 134.00 133.26 C 134.00 247.93 134.01 362.60 134.00 477.27 C 136.08 479.35 138.16 481.43 140.25 483.52 C 201.42 483.49 262.58 483.49 323.75 483.52 C 325.84 481.43 327.92 479.35 330.00 477.27 C 330.00 464.09 329.99 450.92 330.01 437.74 C 327.92 435.65 325.84 433.57 323.75 431.49 C 279.34 431.52 234.92 431.49 190.50 431.50 C 190.51 332.08 190.48 232.66 190.51 133.24 C 188.43 131.16 186.34 129.07 184.25 126.99 C 169.59 127.01 154.92 126.99 140.26 127.00 M 597.19 226.21 C 577.54 230.49 560.74 242.86 547.12 257.22 C 546.17 249.60 546.81 241.21 542.38 234.54 C 539.58 230.02 534.29 227.50 529.06 227.51 C 520.78 227.46 512.50 227.53 504.23 227.49 C 502.15 229.57 500.07 231.65 498.00 233.73 C 498.00 314.90 498.01 396.08 497.99 477.25 C 500.06 479.34 502.15 481.42 504.23 483.51 C 517.73 483.50 531.24 483.48 544.75 483.52 C 546.84 481.43 548.92 479.35 551.01 477.26 C 550.99 431.17 551.00 385.08 551.00 338.98 C 551.18 327.15 550.63 315.26 551.26 303.47 C 555.26 298.11 559.92 293.23 564.94 288.80 C 575.00 279.79 587.33 272.50 601.03 271.34 C 612.93 270.16 626.26 272.44 634.93 281.34 C 644.07 291.17 646.86 305.00 647.50 317.99 C 647.50 371.06 647.52 424.13 647.48 477.20 C 649.58 479.31 651.68 481.42 653.81 483.52 C 667.28 483.48 680.75 483.50 694.23 483.51 C 696.31 481.41 698.41 479.31 700.51 477.22 C 700.49 423.46 700.50 369.70 700.51 315.94 C 699.69 295.20 694.97 274.03 683.37 256.55 C 675.18 244.36 663.31 234.58 649.51 229.45 C 632.90 223.21 614.46 222.51 597.19 226.21 M 1074.46 224.28 C 1061.52 225.02 1048.63 228.03 1037.06 233.95 C 1023.22 240.67 1011.48 251.68 1004.02 265.14 C 996.23 279.50 993.59 296.31 995.61 312.45 C 997.50 325.95 1003.39 339.13 1013.31 348.63 C 1022.17 357.79 1033.75 363.70 1045.49 368.31 C 1058.10 373.59 1071.30 377.27 1084.16 381.87 C 1093.02 385.23 1102.16 389.16 1108.56 396.40 C 1113.46 401.96 1114.41 409.96 1112.87 417.00 C 1111.56 425.63 1106.17 433.47 1098.61 437.83 C 1088.07 444.21 1075.15 444.86 1063.20 443.42 C 1049.98 441.85 1038.35 434.63 1027.91 426.80 C 1022.08 422.29 1013.85 421.01 1007.11 424.17 C 1002.06 426.69 999.34 431.86 996.73 436.58 C 993.70 442.17 990.19 447.50 987.42 453.23 C 999.32 465.93 1014.81 475.08 1031.10 481.10 C 1051.36 488.09 1073.41 489.19 1094.47 485.65 C 1110.20 482.74 1125.45 476.11 1137.57 465.54 C 1153.19 452.10 1162.24 431.99 1163.70 411.60 C 1164.95 397.46 1163.35 382.45 1155.82 370.13 C 1148.87 358.24 1137.61 349.49 1125.42 343.44 C 1115.48 338.79 1105.22 334.83 1094.84 331.30 C 1084.37 327.36 1073.32 324.83 1063.42 319.48 C 1056.88 316.19 1050.12 311.80 1047.18 304.79 C 1044.14 296.08 1047.23 286.10 1053.59 279.67 C 1059.89 273.64 1068.38 270.30 1076.98 269.44 C 1091.02 267.57 1105.23 271.56 1117.49 278.32 C 1123.24 281.31 1128.56 285.68 1135.23 286.40 C 1140.83 286.87 1146.55 284.10 1149.60 279.34 C 1153.82 272.21 1157.74 264.89 1162.11 257.85 C 1149.92 244.82 1134.60 234.72 1117.61 229.18 C 1103.73 224.79 1088.96 223.26 1074.46 224.28 M 375.49 233.78 C 375.50 314.91 375.53 396.05 375.48 477.18 C 377.56 479.30 379.67 481.40 381.78 483.51 C 395.26 483.49 408.75 483.50 422.23 483.50 C 424.32 481.40 426.41 479.31 428.51 477.23 C 428.50 396.08 428.49 314.93 428.51 233.79 C 426.41 231.69 424.32 229.59 422.23 227.49 C 408.74 227.51 395.25 227.50 381.77 227.50 C 379.68 229.59 377.58 231.68 375.49 233.78 M 1440.30 394.97 C 1440.28 452.97 1440.31 510.97 1440.28 568.98 C 1465.95 569.00 1491.62 568.98 1517.30 568.99 C 1517.30 510.97 1517.31 452.96 1517.29 394.94 C 1491.62 394.95 1465.96 394.89 1440.30 394.97 Z" />
</g>
<g id="#01182880">
<path fill="#011828" opacity="0.50" d=" M 192.94 0.00 L 1757.91 0.00 L 1756.13 0.70 C 1740.80 1.39 1725.42 0.81 1710.07 1.00 C 1209.40 1.00 708.73 1.00 208.06 1.00 C 203.01 1.06 197.87 1.39 192.94 0.00 Z" />
<path fill="#011828" opacity="0.50" d=" M 1852.03 100.04 L 1853.00 99.94 L 1853.00 491.32 C 1852.53 489.24 1852.06 487.17 1851.99 485.05 C 1852.04 356.72 1851.95 228.38 1852.03 100.04 Z" />
</g>
<g id="#43e660ff">
<path fill="#43e660" opacity="1.00" d=" M 1440.45 36.50 C 1466.12 36.51 1491.79 36.48 1517.46 36.51 C 1517.46 79.71 1517.44 122.91 1517.46 166.11 C 1547.17 135.79 1576.69 105.28 1606.43 74.99 C 1623.56 92.65 1640.81 110.20 1657.94 127.86 C 1626.94 157.39 1595.89 186.87 1564.91 216.43 C 1608.44 216.44 1651.97 216.41 1695.51 216.45 C 1695.48 240.92 1695.54 265.40 1695.47 289.87 C 1651.71 289.84 1607.94 289.85 1564.18 289.87 C 1595.34 320.29 1626.64 350.58 1657.85 380.96 C 1640.67 398.22 1623.54 415.52 1606.36 432.78 C 1563.91 390.12 1521.47 347.45 1479.00 304.81 C 1436.54 347.46 1394.08 390.09 1351.67 432.78 C 1334.41 415.60 1317.21 398.37 1300.01 381.13 C 1331.25 350.78 1362.52 320.47 1393.72 290.07 C 1349.81 290.06 1305.91 290.07 1262.00 290.07 C 1261.99 265.60 1262.00 241.14 1262.00 216.68 C 1305.72 216.71 1349.44 216.66 1393.16 216.71 C 1362.14 187.06 1331.06 157.48 1300.02 127.86 C 1317.23 110.15 1334.38 92.39 1351.69 74.78 C 1381.24 105.21 1410.80 135.63 1440.43 165.98 C 1440.48 122.82 1440.43 79.66 1440.45 36.50 Z" />
<path fill="#43e660" opacity="1.00" d=" M 1440.30 394.97 C 1465.96 394.89 1491.62 394.95 1517.29 394.94 C 1517.31 452.96 1517.30 510.97 1517.30 568.99 C 1491.62 568.98 1465.95 569.00 1440.28 568.98 C 1440.31 510.97 1440.28 452.97 1440.30 394.97 Z" />
</g>
<g id="#ffffffff">
<path fill="#ffffff" opacity="1.00" d=" M 761.50 123.76 C 763.59 121.68 765.68 119.59 767.76 117.50 C 781.24 117.50 794.73 117.52 808.21 117.49 C 810.47 119.74 812.73 122.01 815.00 124.26 C 815.00 191.18 815.00 258.11 815.00 325.03 C 817.64 324.95 820.39 325.28 822.94 324.38 C 825.40 323.19 827.20 321.04 828.90 318.96 C 852.56 291.93 876.20 264.89 899.87 237.87 C 903.51 234.11 907.34 230.05 912.52 228.54 C 917.21 227.10 922.15 227.55 926.98 227.50 C 936.93 227.49 946.87 227.52 956.81 227.48 C 958.50 231.10 960.14 234.74 961.71 238.41 C 931.11 272.96 900.63 307.62 870.32 342.41 C 874.87 347.13 878.07 352.90 882.06 358.07 C 910.66 396.37 938.96 434.91 967.67 473.14 C 965.97 476.56 964.24 479.96 962.60 483.40 C 952.72 483.62 942.84 483.44 932.97 483.50 C 927.88 483.40 922.61 484.07 917.75 482.20 C 911.89 480.27 907.83 475.32 904.29 470.54 C 879.53 437.41 854.48 404.50 829.78 371.33 C 826.59 366.43 819.98 367.71 815.00 367.49 C 815.01 404.07 814.97 440.64 815.02 477.22 C 812.95 479.33 810.85 481.42 808.75 483.52 C 795.09 483.48 781.43 483.50 767.77 483.50 C 765.68 481.40 763.58 479.31 761.49 477.23 C 761.51 359.40 761.50 241.58 761.50 123.76 Z" />
<path fill="#ffffff" opacity="1.00" d=" M 395.10 121.22 C 404.57 119.10 414.91 121.56 422.59 127.44 C 430.68 133.63 435.99 143.24 437.19 153.33 C 440.15 173.35 423.62 194.42 403.00 194.54 C 383.54 195.61 366.52 177.07 367.46 157.97 C 366.60 141.28 378.64 124.77 395.10 121.22 Z" />
<path fill="#ffffff" opacity="1.00" d=" M 140.26 127.00 C 154.92 126.99 169.59 127.01 184.25 126.99 C 186.34 129.07 188.43 131.16 190.51 133.24 C 190.48 232.66 190.51 332.08 190.50 431.50 C 234.92 431.49 279.34 431.52 323.75 431.49 C 325.84 433.57 327.92 435.65 330.01 437.74 C 329.99 450.92 330.00 464.09 330.00 477.27 C 327.92 479.35 325.84 481.43 323.75 483.52 C 262.58 483.49 201.42 483.49 140.25 483.52 C 138.16 481.43 136.08 479.35 134.00 477.27 C 134.01 362.60 134.00 247.93 134.00 133.26 C 136.09 131.18 138.18 129.10 140.26 127.00 Z" />
<path fill="#ffffff" opacity="1.00" d=" M 597.19 226.21 C 614.46 222.51 632.90 223.21 649.51 229.45 C 663.31 234.58 675.18 244.36 683.37 256.55 C 694.97 274.03 699.69 295.20 700.51 315.94 C 700.50 369.70 700.49 423.46 700.51 477.22 C 698.41 479.31 696.31 481.41 694.23 483.51 C 680.75 483.50 667.28 483.48 653.81 483.52 C 651.68 481.42 649.58 479.31 647.48 477.20 C 647.52 424.13 647.50 371.06 647.50 317.99 C 646.86 305.00 644.07 291.17 634.93 281.34 C 626.26 272.44 612.93 270.16 601.03 271.34 C 587.33 272.50 575.00 279.79 564.94 288.80 C 559.92 293.23 555.26 298.11 551.26 303.47 C 550.63 315.26 551.18 327.15 551.00 338.98 C 551.00 385.08 550.99 431.17 551.01 477.26 C 548.92 479.35 546.84 481.43 544.75 483.52 C 531.24 483.48 517.73 483.50 504.23 483.51 C 502.15 481.42 500.06 479.34 497.99 477.25 C 498.01 396.08 498.00 314.90 498.00 233.73 C 500.07 231.65 502.15 229.57 504.23 227.49 C 512.50 227.53 520.78 227.46 529.06 227.51 C 534.29 227.50 539.58 230.02 542.38 234.54 C 546.81 241.21 546.17 249.60 547.12 257.22 C 560.74 242.86 577.54 230.49 597.19 226.21 Z" />
<path fill="#ffffff" opacity="1.00" d=" M 1074.46 224.28 C 1088.96 223.26 1103.73 224.79 1117.61 229.18 C 1134.60 234.72 1149.92 244.82 1162.11 257.85 C 1157.74 264.89 1153.82 272.21 1149.60 279.34 C 1146.55 284.10 1140.83 286.87 1135.23 286.40 C 1128.56 285.68 1123.24 281.31 1117.49 278.32 C 1105.23 271.56 1091.02 267.57 1076.98 269.44 C 1068.38 270.30 1059.89 273.64 1053.59 279.67 C 1047.23 286.10 1044.14 296.08 1047.18 304.79 C 1050.12 311.80 1056.88 316.19 1063.42 319.48 C 1073.32 324.83 1084.37 327.36 1094.84 331.30 C 1105.22 334.83 1115.48 338.79 1125.42 343.44 C 1137.61 349.49 1148.87 358.24 1155.82 370.13 C 1163.35 382.45 1164.95 397.46 1163.70 411.60 C 1162.24 431.99 1153.19 452.10 1137.57 465.54 C 1125.45 476.11 1110.20 482.74 1094.47 485.65 C 1073.41 489.19 1051.36 488.09 1031.10 481.10 C 1014.81 475.08 999.32 465.93 987.42 453.23 C 990.19 447.50 993.70 442.17 996.73 436.58 C 999.34 431.86 1002.06 426.69 1007.11 424.17 C 1013.85 421.01 1022.08 422.29 1027.91 426.80 C 1038.35 434.63 1049.98 441.85 1063.20 443.42 C 1075.15 444.86 1088.07 444.21 1098.61 437.83 C 1106.17 433.47 1111.56 425.63 1112.87 417.00 C 1114.41 409.96 1113.46 401.96 1108.56 396.40 C 1102.16 389.16 1093.02 385.23 1084.16 381.87 C 1071.30 377.27 1058.10 373.59 1045.49 368.31 C 1033.75 363.70 1022.17 357.79 1013.31 348.63 C 1003.39 339.13 997.50 325.95 995.61 312.45 C 993.59 296.31 996.23 279.50 1004.02 265.14 C 1011.48 251.68 1023.22 240.67 1037.06 233.95 C 1048.63 228.03 1061.52 225.02 1074.46 224.28 Z" />
<path fill="#ffffff" opacity="1.00" d=" M 375.49 233.78 C 377.58 231.68 379.68 229.59 381.77 227.50 C 395.25 227.50 408.74 227.51 422.23 227.49 C 424.32 229.59 426.41 231.69 428.51 233.79 C 428.49 314.93 428.50 396.08 428.51 477.23 C 426.41 479.31 424.32 481.40 422.23 483.50 C 408.75 483.50 395.26 483.49 381.78 483.51 C 379.67 481.40 377.56 479.30 375.48 477.18 C 375.53 396.05 375.50 314.91 375.49 233.78 Z" />
</g>
</svg>
